<?xml version="1.0" encoding="UTF-8"?>
<!DOCTYPE svg PUBLIC "-//W3C//DTD SVG 1.0//EN" "http://www.w3.org/TR/2001/REC-SVG-20010904/DTD/svg10.dtd">
<!-- Creator: CorelDRAW 2020 (64-Bit) -->
<svg xmlns="http://www.w3.org/2000/svg" xml:space="preserve" width="54.3848mm" height="11.4146mm" version="1.0" style="shape-rendering:geometricPrecision; text-rendering:geometricPrecision; image-rendering:optimizeQuality; fill-rule:evenodd; clip-rule:evenodd"
viewBox="0 0 136.53 28.66"
 xmlns:xlink="http://www.w3.org/1999/xlink"
 xmlns:xodm="http://www.corel.com/coreldraw/odm/2003">
 <defs>
  <style type="text/css">
   <![CDATA[
    .fil1 {fill:#23A363}
    .fil0 {fill:#23A363;fill-rule:nonzero}
   ]]>
  </style>
 </defs>
 <g id="Layer_x0020_1">
  <metadata id="CorelCorpID_0Corel-Layer"/>
  <g id="_1921070751424">
   <path class="fil0" d="M3.8 4.73c-2.73,0 -3.8,1.53 -3.8,3.6l0 3.72c0,2.07 1.07,3.6 3.8,3.6l6.67 0 0 -2.13 -6.67 0c-1.2,0 -1.67,-0.64 -1.67,-1.51l0 -0.79 5.19 0c2.69,0 3.7,-1.14 3.7,-3.14 0,-2.11 -1.1,-3.35 -3.68,-3.35l-3.53 0 0 0zm-1.67 3.62c0,-0.85 0.48,-1.51 1.67,-1.51l3.51 0c1.07,0 1.55,0.54 1.55,1.36 0,0.81 -0.43,1.3 -1.61,1.3l-5.12 0 0 -1.16 0 0zm11.65 -6.65l0 2.44 7.25 0c1.32,0 1.92,0.85 1.92,1.86 0,0.97 -0.56,1.92 -1.94,1.92l-5.02 0c-1.53,0 -2.19,0.64 -2.19,2.21l0 5.52 2.44 0 0 -5.04c0,-0.25 0.12,-0.35 0.35,-0.35l4.34 0c3.27,0 4.48,-2.27 4.48,-4.38 0,-2.23 -1.34,-4.17 -4.48,-4.17l-7.15 0 -0 0zm13.89 3.04l0 6.61c0,2.52 1.61,4.3 4.73,4.3l2.03 0c3.12,0 4.73,-1.78 4.73,-4.3l0 -6.61 -2.15 0 0 6.53c0,1.28 -0.93,2.25 -2.67,2.25l-1.78 0c-1.74,0 -2.69,-0.97 -2.69,-2.25l0 -6.53 -2.21 0zm17.61 0c-2.54,0 -3.55,1.22 -3.55,3.18 0,1.67 0.74,3.18 3.76,3.18l2.58 0c1.1,0 1.55,0.35 1.55,1.22 0,0.85 -0.41,1.2 -1.43,1.2l-6.34 0 0 2.13 6.34 0c2.56,0 3.58,-1.36 3.58,-3.31 0,-1.69 -0.76,-3.08 -3.78,-3.08l-2.56 0c-1.22,0 -1.55,-0.41 -1.55,-1.18 0,-0.83 0.41,-1.24 1.43,-1.24l6.03 0 0 -2.11 -6.05 0 -0 0zm9.07 -4.73l0 15.64 2.19 0 0 -4.55 1.01 0c1.92,0 2.36,0.19 3,1.32l1.82 3.22 2.46 0 -1.96 -3.43c-0.66,-1.14 -1.2,-1.82 -2.23,-2.11 0.89,-0.37 1.41,-0.97 1.94,-1.94l1.9 -3.43 -2.38 0 -1.82 3.29c-0.64,1.16 -0.99,1.24 -2.73,1.24l-1.01 0 0 -9.26 -2.19 0 -0 -0zm15.42 4.73c-2.73,0 -3.8,1.53 -3.8,3.6l0 3.72c0,2.07 1.07,3.6 3.8,3.6l6.67 0 0 -2.13 -6.67 0c-1.2,0 -1.67,-0.64 -1.67,-1.51l0 -0.79 5.19 0c2.69,0 3.7,-1.14 3.7,-3.14 0,-2.11 -1.1,-3.35 -3.68,-3.35l-3.53 0 0 0zm-1.67 3.62c0,-0.85 0.48,-1.51 1.67,-1.51l3.51 0c1.07,0 1.55,0.54 1.55,1.36 0,0.81 -0.43,1.3 -1.61,1.3l-5.12 0 0 -1.16 0 0zm14.61 -3.62c-2.54,0 -3.55,1.22 -3.55,3.18 0,1.67 0.74,3.18 3.76,3.18l2.58 0c1.1,0 1.55,0.35 1.55,1.22 0,0.85 -0.41,1.2 -1.43,1.2l-6.34 0 0 2.13 6.34 0c2.56,0 3.58,-1.36 3.58,-3.31 0,-1.69 -0.76,-3.08 -3.78,-3.08l-2.56 0c-1.22,0 -1.55,-0.41 -1.55,-1.18 0,-0.83 0.41,-1.24 1.43,-1.24l6.03 0 0 -2.11 -6.05 0 -0 0zm10.6 0c-1.09,0 -1.53,0.41 -1.53,1.69l0 9.22 2.19 0 0 -8.49c0,-0.21 0.08,-0.31 0.27,-0.31l5.54 0 0 8.8 2.21 0 0 -8.8 2.56 0c2.29,0 3.29,0.95 3.29,2.67l0 6.14 2.21 0 0 -6.14c0,-3.02 -1.82,-4.77 -5.52,-4.77l-11.22 0 0 0zm20.23 0l0 2.11 6.53 0c1.2,0 1.67,0.66 1.67,1.51l0 0.83 -5.19 0c-2.69,0 -3.68,1.16 -3.68,3.14 0,2.07 1.07,3.33 3.66,3.33l5.1 0c1.84,0 2.25,-0.62 2.25,-2.19l0 -5.12c0,-2.07 -1.07,-3.6 -3.8,-3.6l-6.55 0 0 -0zm7.6 8.78l-4.59 0c-1.1,0 -1.53,-0.52 -1.53,-1.32 0,-0.81 0.41,-1.28 1.57,-1.28l5.15 0 0 2.05c0,0.39 -0.17,0.56 -0.6,0.56l-0 0zm8.89 -8.78c-2.54,0 -3.55,1.22 -3.55,3.18 0,1.67 0.74,3.18 3.76,3.18l2.58 0c1.1,0 1.55,0.35 1.55,1.22 0,0.85 -0.41,1.2 -1.43,1.2l-6.34 0 0 2.13 6.34 0c2.56,0 3.58,-1.36 3.58,-3.31 0,-1.69 -0.76,-3.08 -3.78,-3.08l-2.56 0c-1.22,0 -1.55,-0.41 -1.55,-1.18 0,-0.83 0.41,-1.24 1.43,-1.24l6.03 0 0 -2.11 -6.05 0 -0 0z"/>
   <g>
    <g>
     <path class="fil1" d="M131.55 18.69c2.75,0 4.98,2.23 4.98,4.99 0,2.75 -2.23,4.98 -4.98,4.98 -0.28,0 -0.55,-0.02 -0.81,-0.07 2.08,-0.03 3.75,-1.73 3.75,-3.81 0,-2.1 -1.71,-3.81 -3.81,-3.81 -2.1,0 -3.81,1.71 -3.81,3.81 0,0.29 0.03,0.58 0.09,0.85 -0.26,-0.6 -0.4,-1.26 -0.4,-1.96 0,-2.75 2.23,-4.99 4.98,-4.99l0 0z"/>
     <path class="fil1" d="M130.57 21.41c0.1,0 0.2,0.01 0.3,0.01 -1.4,0.07 -2.5,1.23 -2.5,2.64 0,1.46 1.18,2.64 2.64,2.64 1.46,0 2.64,-1.18 2.64,-2.64 0,-0.42 -0.1,-0.82 -0.28,-1.18 0.38,0.55 0.6,1.21 0.6,1.92 0,1.88 -1.52,3.4 -3.4,3.4 -1.88,0 -3.4,-1.52 -3.4,-3.4 0,-1.87 1.52,-3.4 3.4,-3.4l0 0z"/>
     <path class="fil1" d="M131 21.78c1.26,0 2.28,1.02 2.28,2.28 0,1.23 -0.98,2.23 -2.2,2.27 0.77,-0.18 1.34,-0.88 1.34,-1.71 0,-0.97 -0.78,-1.75 -1.75,-1.75 -0.97,0 -1.75,0.79 -1.75,1.75 0,0.17 0.03,0.34 0.07,0.49 -0.17,-0.32 -0.27,-0.68 -0.27,-1.07 0,-1.26 1.02,-2.28 2.28,-2.28l-0 0z"/>
    </g>
    <path class="fil0" d="M83.5 23.01c0,0.23 -0.02,0.48 -0.06,0.75 -0.04,0.26 -0.11,0.53 -0.2,0.79 -0.09,0.26 -0.2,0.51 -0.34,0.75 -0.14,0.24 -0.3,0.45 -0.5,0.64 -0.2,0.19 -0.42,0.33 -0.67,0.44 -0.25,0.11 -0.53,0.16 -0.83,0.16 -0.3,0 -0.56,-0.06 -0.79,-0.17 -0.23,-0.12 -0.43,-0.29 -0.59,-0.53l-0.07 0.41c-0.01,0.07 -0.07,0.13 -0.17,0.16 -0.1,0.03 -0.26,0.05 -0.47,0.05 -0.21,0 -0.35,-0.02 -0.43,-0.05 -0.08,-0.04 -0.11,-0.09 -0.09,-0.16l1.39 -6.98c0.01,-0.03 0.02,-0.07 0.05,-0.1 0.03,-0.03 0.07,-0.05 0.12,-0.07 0.06,-0.02 0.13,-0.03 0.21,-0.05 0.09,-0.01 0.2,-0.02 0.33,-0.02 0.13,0 0.24,0.01 0.32,0.02 0.08,0.01 0.14,0.03 0.19,0.05 0.05,0.02 0.08,0.04 0.09,0.07 0.02,0.03 0.02,0.06 0.01,0.1l-0.38 1.9c-0.02,0.08 -0.03,0.17 -0.05,0.26 -0.02,0.09 -0.04,0.18 -0.06,0.27 -0.03,0.09 -0.05,0.17 -0.08,0.26 -0.03,0.08 -0.06,0.15 -0.09,0.22 0.07,-0.11 0.17,-0.22 0.28,-0.34 0.12,-0.11 0.25,-0.22 0.4,-0.31 0.15,-0.09 0.31,-0.17 0.49,-0.22 0.17,-0.06 0.35,-0.08 0.52,-0.08 0.2,0 0.38,0.03 0.52,0.08 0.15,0.05 0.28,0.12 0.39,0.21 0.11,0.09 0.2,0.19 0.27,0.31 0.07,0.12 0.13,0.25 0.17,0.38 0.04,0.13 0.07,0.27 0.09,0.41 0.02,0.14 0.02,0.28 0.02,0.42l-0 -0zm-1.37 0.14c0,-0.09 -0.01,-0.18 -0.02,-0.27 -0.01,-0.09 -0.04,-0.18 -0.08,-0.26 -0.04,-0.08 -0.1,-0.14 -0.17,-0.19 -0.07,-0.05 -0.17,-0.07 -0.28,-0.07 -0.16,0 -0.32,0.05 -0.48,0.14 -0.16,0.09 -0.31,0.22 -0.45,0.38 -0.14,0.16 -0.27,0.35 -0.38,0.56 -0.11,0.22 -0.19,0.45 -0.24,0.69l-0.14 0.71c0.12,0.19 0.26,0.34 0.41,0.43 0.15,0.09 0.32,0.14 0.52,0.14 0.14,0 0.27,-0.03 0.39,-0.1 0.12,-0.07 0.23,-0.16 0.33,-0.27 0.1,-0.11 0.18,-0.24 0.26,-0.4 0.07,-0.15 0.13,-0.31 0.18,-0.48 0.05,-0.17 0.09,-0.34 0.11,-0.51 0.03,-0.17 0.04,-0.34 0.04,-0.5l0 0zm6.9 -1.66c0,0.05 -0.01,0.1 -0.02,0.15 -0.01,0.06 -0.03,0.12 -0.05,0.18 -0.12,0.33 -0.25,0.66 -0.39,1.01 -0.14,0.35 -0.3,0.7 -0.48,1.07 -0.18,0.37 -0.38,0.75 -0.61,1.14 -0.23,0.39 -0.49,0.8 -0.79,1.22l-1.29 1.83c-0.03,0.05 -0.07,0.08 -0.12,0.11 -0.05,0.03 -0.11,0.06 -0.18,0.07 -0.07,0.02 -0.16,0.03 -0.26,0.05 -0.1,0.01 -0.22,0.02 -0.36,0.02 -0.15,0 -0.28,-0.01 -0.37,-0.02 -0.09,-0.01 -0.16,-0.03 -0.21,-0.06 -0.04,-0.03 -0.06,-0.06 -0.06,-0.1 0,-0.04 0.03,-0.09 0.07,-0.15l1.2 -1.58 -0.78 -4.55c-0.01,-0.05 -0.02,-0.09 -0.02,-0.14 -0.01,-0.05 -0.01,-0.09 -0.01,-0.13 0,-0.06 0.01,-0.11 0.03,-0.15 0.02,-0.04 0.06,-0.07 0.12,-0.09 0.05,-0.02 0.13,-0.04 0.22,-0.05 0.09,-0.01 0.21,-0.01 0.33,-0.01 0.14,0 0.26,0 0.34,0.01 0.08,0.01 0.15,0.02 0.19,0.03 0.04,0.02 0.07,0.05 0.09,0.08 0.02,0.04 0.03,0.08 0.03,0.13l0.49 3.32 0.01 0c0.18,-0.27 0.34,-0.53 0.48,-0.81 0.14,-0.27 0.28,-0.55 0.4,-0.83 0.12,-0.28 0.23,-0.57 0.33,-0.85 0.1,-0.29 0.19,-0.58 0.28,-0.87 0.01,-0.03 0.02,-0.07 0.05,-0.09 0.02,-0.03 0.07,-0.05 0.12,-0.06 0.06,-0.02 0.14,-0.03 0.23,-0.04 0.1,-0.01 0.22,-0.01 0.37,-0.01 0.22,0 0.38,0.01 0.46,0.04 0.08,0.03 0.13,0.08 0.13,0.15l0 0zm5.19 -1.58c-0.03,0.13 -0.06,0.24 -0.1,0.33 -0.04,0.09 -0.1,0.16 -0.17,0.22 -0.07,0.06 -0.16,0.09 -0.26,0.12 -0.1,0.02 -0.23,0.03 -0.38,0.03 -0.15,0 -0.27,-0.01 -0.36,-0.03 -0.09,-0.02 -0.16,-0.06 -0.21,-0.12 -0.05,-0.05 -0.08,-0.13 -0.08,-0.22 -0.01,-0.09 0,-0.2 0.03,-0.33 0.03,-0.13 0.06,-0.24 0.1,-0.32 0.04,-0.09 0.1,-0.16 0.17,-0.22 0.07,-0.06 0.16,-0.1 0.26,-0.12 0.1,-0.03 0.23,-0.04 0.38,-0.04 0.15,0 0.27,0.01 0.37,0.04 0.1,0.02 0.17,0.06 0.22,0.12 0.05,0.06 0.07,0.13 0.08,0.22 0.01,0.09 -0,0.2 -0.03,0.32l-0 0zm-1.37 6.33c-0.01,0.03 -0.02,0.07 -0.05,0.09 -0.03,0.03 -0.07,0.05 -0.12,0.07 -0.05,0.02 -0.13,0.03 -0.22,0.04 -0.09,0.01 -0.2,0.01 -0.33,0.01 -0.13,0 -0.24,-0 -0.32,-0.01 -0.08,-0.01 -0.15,-0.02 -0.19,-0.04 -0.05,-0.02 -0.08,-0.04 -0.09,-0.07 -0.01,-0.03 -0.02,-0.06 -0.01,-0.09l0.93 -4.72c0.01,-0.03 0.02,-0.07 0.05,-0.09 0.03,-0.03 0.07,-0.05 0.12,-0.07 0.06,-0.02 0.13,-0.03 0.21,-0.05 0.09,-0.01 0.2,-0.02 0.33,-0.02 0.13,0 0.24,0.01 0.32,0.02 0.08,0.01 0.15,0.03 0.2,0.05 0.05,0.02 0.08,0.04 0.09,0.07 0.02,0.03 0.02,0.06 0.01,0.09l-0.94 4.72zm6.42 -3.68c0,0.12 -0.01,0.25 -0.02,0.37 -0.02,0.12 -0.04,0.25 -0.06,0.38l-0.58 2.92c-0.01,0.03 -0.02,0.07 -0.05,0.09 -0.03,0.03 -0.07,0.05 -0.12,0.07 -0.06,0.02 -0.13,0.03 -0.22,0.04 -0.09,0.01 -0.2,0.01 -0.33,0.01 -0.13,0 -0.23,-0 -0.32,-0.01 -0.08,-0.01 -0.14,-0.02 -0.19,-0.04 -0.05,-0.02 -0.08,-0.04 -0.09,-0.07 -0.02,-0.03 -0.02,-0.06 -0.01,-0.09l0.56 -2.84c0.02,-0.08 0.03,-0.17 0.04,-0.26 0.01,-0.09 0.01,-0.17 0.01,-0.23 0,-0.16 -0.03,-0.29 -0.1,-0.4 -0.07,-0.1 -0.18,-0.15 -0.34,-0.15 -0.14,0 -0.29,0.05 -0.45,0.14 -0.16,0.09 -0.31,0.22 -0.45,0.38 -0.14,0.16 -0.26,0.34 -0.37,0.55 -0.11,0.21 -0.19,0.43 -0.23,0.67l-0.43 2.14c-0.01,0.03 -0.02,0.07 -0.05,0.09 -0.03,0.03 -0.07,0.05 -0.12,0.07 -0.05,0.02 -0.13,0.03 -0.22,0.04 -0.09,0.01 -0.2,0.01 -0.33,0.01 -0.13,0 -0.24,-0 -0.32,-0.01 -0.08,-0.01 -0.15,-0.02 -0.19,-0.04 -0.05,-0.02 -0.08,-0.04 -0.09,-0.07 -0.01,-0.03 -0.02,-0.06 -0.01,-0.09l0.94 -4.74c0.01,-0.03 0.02,-0.07 0.05,-0.09 0.02,-0.03 0.06,-0.05 0.11,-0.06 0.05,-0.02 0.11,-0.03 0.18,-0.04 0.08,-0.01 0.17,-0.01 0.27,-0.01 0.11,0 0.2,0 0.27,0.01 0.07,0.01 0.12,0.02 0.16,0.04 0.04,0.02 0.06,0.04 0.08,0.06 0.01,0.03 0.01,0.06 0.01,0.09l-0.15 0.78c0.07,-0.12 0.17,-0.25 0.29,-0.38 0.12,-0.13 0.27,-0.24 0.43,-0.35 0.16,-0.1 0.34,-0.19 0.52,-0.25 0.19,-0.07 0.38,-0.1 0.59,-0.1 0.25,0 0.46,0.04 0.62,0.11 0.17,0.07 0.3,0.17 0.41,0.29 0.1,0.12 0.18,0.27 0.23,0.43 0.05,0.16 0.07,0.34 0.07,0.52l0 0zm4.84 -3.21c0,0.02 -0,0.06 -0.01,0.1 -0.01,0.05 -0.01,0.1 -0.02,0.16 -0.01,0.06 -0.02,0.12 -0.03,0.19 -0.01,0.06 -0.03,0.12 -0.05,0.18 -0.02,0.06 -0.04,0.1 -0.07,0.13 -0.03,0.03 -0.05,0.05 -0.08,0.05 -0.02,0 -0.05,-0.01 -0.08,-0.02 -0.03,-0.01 -0.07,-0.02 -0.11,-0.04 -0.04,-0.01 -0.09,-0.02 -0.14,-0.03 -0.06,-0.01 -0.11,-0.02 -0.18,-0.02 -0.11,0 -0.21,0.02 -0.29,0.05 -0.08,0.03 -0.15,0.08 -0.21,0.15 -0.06,0.07 -0.11,0.16 -0.15,0.27 -0.04,0.11 -0.08,0.24 -0.11,0.39l-0.08 0.4 0.85 0c0.05,0 0.09,0.02 0.11,0.05 0.02,0.03 0.03,0.09 0.03,0.16 0,0.03 -0,0.08 -0.01,0.14 -0.01,0.06 -0.02,0.12 -0.03,0.19 -0.02,0.06 -0.03,0.13 -0.05,0.19 -0.02,0.06 -0.05,0.12 -0.07,0.17 -0.03,0.05 -0.05,0.1 -0.09,0.13 -0.03,0.03 -0.07,0.05 -0.11,0.05l-0.86 0 -0.84 4.15c-0.06,0.29 -0.14,0.55 -0.25,0.77 -0.11,0.22 -0.24,0.41 -0.39,0.56 -0.16,0.15 -0.35,0.26 -0.56,0.34 -0.22,0.08 -0.46,0.11 -0.74,0.11 -0.18,0 -0.34,-0.02 -0.46,-0.04 -0.12,-0.03 -0.21,-0.06 -0.24,-0.09 -0.02,-0.02 -0.03,-0.04 -0.04,-0.07 -0.01,-0.03 -0.01,-0.06 -0.01,-0.11 0,-0.02 0,-0.06 0.01,-0.11 0.01,-0.05 0.01,-0.11 0.03,-0.16 0.01,-0.06 0.02,-0.12 0.04,-0.19 0.02,-0.06 0.03,-0.12 0.05,-0.17 0.02,-0.05 0.04,-0.1 0.07,-0.13 0.03,-0.03 0.05,-0.05 0.08,-0.05 0.02,0 0.04,0 0.06,0.01 0.02,0 0.05,0.01 0.07,0.02 0.02,0.01 0.05,0.01 0.09,0.01 0.03,0 0.08,0.01 0.13,0.01 0.11,0 0.21,-0.02 0.29,-0.05 0.08,-0.03 0.16,-0.09 0.22,-0.16 0.06,-0.07 0.11,-0.16 0.15,-0.27 0.04,-0.11 0.08,-0.25 0.11,-0.4l0.8 -3.98 -0.59 0c-0.04,0 -0.07,-0.01 -0.1,-0.05 -0.02,-0.03 -0.03,-0.09 -0.03,-0.17 0,-0.03 0,-0.08 0.01,-0.14 0.01,-0.06 0.02,-0.12 0.03,-0.18 0.01,-0.06 0.03,-0.13 0.05,-0.19 0.02,-0.07 0.04,-0.12 0.07,-0.17 0.03,-0.05 0.06,-0.09 0.09,-0.13 0.03,-0.04 0.07,-0.05 0.12,-0.05l0.58 0 0.1 -0.52c0.06,-0.3 0.14,-0.56 0.25,-0.79 0.11,-0.23 0.24,-0.42 0.41,-0.57 0.16,-0.15 0.35,-0.27 0.57,-0.34 0.22,-0.08 0.46,-0.11 0.74,-0.11 0.09,0 0.18,0 0.27,0.01 0.09,0.01 0.17,0.02 0.25,0.04 0.07,0.02 0.14,0.03 0.19,0.06 0.06,0.02 0.09,0.04 0.12,0.06 0.02,0.02 0.04,0.04 0.05,0.07 0.01,0.03 0.01,0.07 0.01,0.12l0 0zm4.38 3.74c0,0.26 -0.02,0.52 -0.07,0.79 -0.05,0.27 -0.12,0.53 -0.22,0.79 -0.1,0.26 -0.23,0.5 -0.39,0.72 -0.16,0.23 -0.35,0.42 -0.58,0.59 -0.22,0.17 -0.48,0.31 -0.77,0.41 -0.29,0.1 -0.62,0.15 -0.98,0.15 -0.36,0 -0.67,-0.04 -0.93,-0.12 -0.26,-0.08 -0.48,-0.21 -0.65,-0.36 -0.17,-0.16 -0.3,-0.36 -0.39,-0.59 -0.08,-0.24 -0.13,-0.51 -0.13,-0.81 0,-0.26 0.02,-0.52 0.07,-0.79 0.05,-0.27 0.12,-0.53 0.22,-0.78 0.1,-0.26 0.24,-0.5 0.4,-0.72 0.16,-0.23 0.35,-0.43 0.58,-0.6 0.23,-0.17 0.48,-0.3 0.77,-0.4 0.29,-0.1 0.62,-0.15 0.98,-0.15 0.36,0 0.66,0.04 0.93,0.12 0.26,0.08 0.48,0.21 0.65,0.37 0.17,0.16 0.3,0.36 0.39,0.59 0.09,0.24 0.13,0.51 0.13,0.81l-0 -0zm-1.38 0.09c0,-0.15 -0.02,-0.28 -0.05,-0.4 -0.03,-0.11 -0.08,-0.21 -0.15,-0.29 -0.07,-0.08 -0.16,-0.14 -0.26,-0.18 -0.11,-0.04 -0.24,-0.06 -0.4,-0.06 -0.18,0 -0.34,0.03 -0.48,0.1 -0.14,0.07 -0.27,0.16 -0.38,0.28 -0.11,0.12 -0.21,0.25 -0.29,0.41 -0.08,0.15 -0.15,0.31 -0.2,0.48 -0.05,0.17 -0.09,0.34 -0.12,0.52 -0.03,0.17 -0.04,0.34 -0.04,0.5 0,0.15 0.01,0.28 0.05,0.4 0.03,0.12 0.08,0.22 0.15,0.29 0.07,0.08 0.16,0.14 0.27,0.18 0.11,0.04 0.24,0.06 0.4,0.06 0.18,0 0.34,-0.03 0.48,-0.1 0.14,-0.07 0.27,-0.16 0.38,-0.28 0.11,-0.12 0.21,-0.26 0.29,-0.41 0.08,-0.15 0.15,-0.32 0.2,-0.49 0.05,-0.17 0.09,-0.34 0.12,-0.52 0.02,-0.17 0.04,-0.34 0.04,-0.5l-0 -0zm8.15 -3.45c0,0.06 -0.02,0.13 -0.07,0.2 -0.05,0.07 -0.12,0.16 -0.22,0.28l-2.43 2.57 1.45 3.06c0.03,0.07 0.05,0.13 0.06,0.18 0.02,0.05 0.02,0.1 0.02,0.14 0,0.05 -0.01,0.09 -0.03,0.13 -0.02,0.03 -0.06,0.06 -0.12,0.08 -0.06,0.02 -0.13,0.04 -0.23,0.05 -0.1,0.01 -0.22,0.02 -0.36,0.02 -0.15,0 -0.27,-0 -0.36,-0.01 -0.09,-0.01 -0.16,-0.02 -0.22,-0.04 -0.05,-0.02 -0.09,-0.04 -0.12,-0.07 -0.02,-0.03 -0.04,-0.07 -0.06,-0.11l-1.45 -3.25 -0.64 3.27c-0.01,0.04 -0.02,0.07 -0.05,0.1 -0.03,0.03 -0.07,0.05 -0.13,0.07 -0.06,0.02 -0.13,0.03 -0.22,0.04 -0.09,0.01 -0.2,0.01 -0.33,0.01 -0.14,0 -0.25,-0 -0.34,-0.01 -0.09,-0.01 -0.16,-0.02 -0.21,-0.04 -0.05,-0.02 -0.08,-0.04 -0.1,-0.07 -0.02,-0.03 -0.02,-0.06 -0.01,-0.1l1.29 -6.49c0,-0.04 0.02,-0.07 0.05,-0.1 0.03,-0.03 0.07,-0.05 0.13,-0.07 0.06,-0.02 0.13,-0.03 0.23,-0.04 0.09,-0.01 0.21,-0.01 0.34,-0.01 0.13,0 0.24,0 0.33,0.01 0.08,0.01 0.15,0.02 0.2,0.04 0.05,0.02 0.08,0.04 0.1,0.07 0.02,0.03 0.02,0.06 0.02,0.1l-0.58 2.93 2.54 -2.91c0.04,-0.04 0.07,-0.08 0.11,-0.11 0.04,-0.03 0.09,-0.06 0.16,-0.07 0.06,-0.02 0.14,-0.03 0.24,-0.04 0.09,-0.01 0.21,-0.01 0.35,-0.01 0.14,0 0.25,0 0.34,0.01 0.09,0.01 0.16,0.02 0.21,0.04 0.05,0.02 0.08,0.04 0.1,0.07 0.02,0.03 0.03,0.06 0.03,0.1l0 -0zm4.37 2.8c0,0.25 -0.06,0.48 -0.17,0.69 -0.11,0.21 -0.29,0.38 -0.53,0.52 -0.24,0.15 -0.55,0.26 -0.92,0.34 -0.37,0.08 -0.81,0.12 -1.33,0.12l-0.49 0c-0.01,0.08 -0.02,0.16 -0.03,0.24 -0.01,0.08 -0.01,0.15 -0.01,0.22 0,0.29 0.07,0.5 0.22,0.65 0.15,0.14 0.39,0.22 0.71,0.22 0.23,0 0.44,-0.02 0.63,-0.05 0.18,-0.03 0.35,-0.07 0.49,-0.11 0.14,-0.04 0.26,-0.08 0.35,-0.11 0.09,-0.03 0.16,-0.05 0.2,-0.05 0.04,0 0.07,0.01 0.09,0.04 0.02,0.03 0.03,0.07 0.03,0.12 0,0.06 -0.01,0.13 -0.02,0.21 -0.01,0.08 -0.03,0.16 -0.05,0.23 -0.02,0.08 -0.04,0.15 -0.07,0.22 -0.03,0.07 -0.06,0.12 -0.1,0.15 -0.04,0.04 -0.12,0.08 -0.23,0.13 -0.11,0.04 -0.25,0.08 -0.41,0.12 -0.16,0.03 -0.34,0.06 -0.54,0.09 -0.2,0.02 -0.4,0.03 -0.61,0.03 -0.34,0 -0.64,-0.04 -0.89,-0.11 -0.25,-0.07 -0.46,-0.18 -0.63,-0.32 -0.17,-0.14 -0.3,-0.33 -0.38,-0.55 -0.08,-0.22 -0.13,-0.49 -0.13,-0.8 0,-0.24 0.02,-0.49 0.07,-0.76 0.04,-0.27 0.12,-0.54 0.21,-0.8 0.1,-0.26 0.23,-0.52 0.38,-0.76 0.16,-0.24 0.34,-0.45 0.56,-0.63 0.22,-0.18 0.48,-0.33 0.77,-0.44 0.29,-0.11 0.62,-0.16 0.99,-0.16 0.32,0 0.6,0.04 0.83,0.11 0.23,0.08 0.42,0.18 0.57,0.3 0.15,0.12 0.26,0.27 0.33,0.43 0.07,0.16 0.11,0.33 0.11,0.5l0 -0zm-1.31 0.1c0,-0.14 -0.05,-0.26 -0.16,-0.35 -0.11,-0.09 -0.27,-0.14 -0.48,-0.14 -0.18,0 -0.33,0.03 -0.47,0.1 -0.14,0.06 -0.26,0.15 -0.37,0.26 -0.11,0.11 -0.2,0.24 -0.27,0.38 -0.07,0.15 -0.14,0.3 -0.18,0.47l0.44 0c0.28,0 0.52,-0.02 0.71,-0.06 0.19,-0.04 0.34,-0.09 0.46,-0.15 0.12,-0.07 0.2,-0.14 0.25,-0.23 0.05,-0.09 0.08,-0.18 0.08,-0.28zm5.62 -0.93c0,0.04 -0.01,0.11 -0.02,0.19 -0.01,0.08 -0.03,0.17 -0.05,0.25 -0.03,0.09 -0.05,0.16 -0.09,0.22 -0.03,0.06 -0.07,0.09 -0.11,0.09 -0.05,0 -0.1,-0.02 -0.16,-0.05 -0.06,-0.03 -0.14,-0.07 -0.23,-0.11 -0.09,-0.04 -0.19,-0.08 -0.31,-0.11 -0.12,-0.03 -0.26,-0.05 -0.42,-0.05 -0.12,0 -0.23,0.02 -0.33,0.05 -0.1,0.03 -0.18,0.08 -0.24,0.13 -0.06,0.05 -0.11,0.12 -0.14,0.19 -0.03,0.07 -0.05,0.15 -0.05,0.24 0,0.11 0.05,0.2 0.13,0.28 0.09,0.07 0.2,0.14 0.34,0.21 0.13,0.07 0.28,0.13 0.43,0.21 0.16,0.07 0.3,0.16 0.43,0.26 0.13,0.11 0.24,0.24 0.33,0.39 0.09,0.15 0.13,0.34 0.13,0.57 0,0.27 -0.05,0.52 -0.15,0.75 -0.1,0.23 -0.25,0.42 -0.45,0.59 -0.2,0.17 -0.43,0.3 -0.71,0.39 -0.28,0.09 -0.6,0.14 -0.95,0.14 -0.17,0 -0.33,-0.01 -0.49,-0.04 -0.15,-0.03 -0.29,-0.05 -0.41,-0.09 -0.12,-0.03 -0.22,-0.07 -0.31,-0.12 -0.08,-0.05 -0.15,-0.09 -0.19,-0.12 -0.03,-0.03 -0.05,-0.06 -0.06,-0.09 -0.01,-0.03 -0.02,-0.07 -0.02,-0.12 0,-0.03 0,-0.07 0.01,-0.12 0.01,-0.05 0.01,-0.11 0.03,-0.16 0.01,-0.06 0.03,-0.12 0.04,-0.18 0.02,-0.06 0.03,-0.12 0.06,-0.16 0.02,-0.05 0.04,-0.09 0.07,-0.12 0.03,-0.03 0.05,-0.05 0.08,-0.05 0.05,0 0.1,0.02 0.16,0.06 0.06,0.04 0.14,0.09 0.23,0.14 0.09,0.05 0.21,0.1 0.35,0.14 0.14,0.05 0.31,0.07 0.52,0.07 0.14,0 0.27,-0.02 0.38,-0.05 0.11,-0.03 0.2,-0.08 0.27,-0.14 0.07,-0.06 0.12,-0.13 0.15,-0.21 0.03,-0.08 0.05,-0.16 0.05,-0.25 0,-0.12 -0.04,-0.22 -0.13,-0.3 -0.08,-0.08 -0.19,-0.15 -0.32,-0.22 -0.13,-0.07 -0.27,-0.14 -0.43,-0.21 -0.15,-0.07 -0.29,-0.16 -0.43,-0.26 -0.13,-0.1 -0.24,-0.23 -0.32,-0.38 -0.09,-0.15 -0.13,-0.34 -0.13,-0.57 0,-0.25 0.05,-0.48 0.14,-0.7 0.1,-0.22 0.24,-0.41 0.42,-0.56 0.18,-0.16 0.41,-0.29 0.67,-0.38 0.26,-0.09 0.56,-0.14 0.89,-0.14 0.15,0 0.29,0.01 0.43,0.03 0.14,0.02 0.27,0.05 0.38,0.08 0.11,0.03 0.21,0.07 0.29,0.1 0.08,0.04 0.14,0.08 0.18,0.12 0.03,0.04 0.05,0.1 0.05,0.18l0 -0z"/>
   </g>
  </g>
 </g>
</svg>
