<svg width="148" height="148" viewBox="0 0 148 148" fill="none" xmlns="http://www.w3.org/2000/svg">
<g clip-path="url(#clip0_39695_1273)">
<path d="M144.88 77.0865C144.88 77.2067 144.88 77.3469 144.88 77.4671C144.88 78.8693 144.82 80.2515 144.74 81.6137C144.58 84.2179 144.259 86.802 143.819 89.3261C143.778 89.5264 143.758 89.7267 143.718 89.927C143.678 90.1274 143.638 90.3077 143.618 90.508C143.097 93.2123 142.416 95.8766 141.615 98.4808C140.974 100.484 140.273 102.447 139.472 104.35C138.23 107.355 136.767 110.26 135.125 113.024C135.004 113.224 134.884 113.425 134.764 113.625C133.382 115.909 131.899 118.092 130.277 120.196C130.117 120.396 129.956 120.596 129.816 120.797C121.903 130.893 111.306 138.785 99.0868 143.413C98.8865 143.493 98.6862 143.573 98.4859 143.633C95.9819 144.555 93.3977 145.336 90.7735 145.977C86.0459 147.119 81.118 147.8 76.0699 147.94C75.3688 147.96 74.6877 147.98 73.9866 147.98C65.7734 147.98 57.8808 146.578 50.549 144.014C50.3287 143.934 50.1083 143.853 49.888 143.773C49.1868 143.513 48.4857 143.253 47.8046 142.992C37.3078 138.825 28.053 132.215 20.7012 123.861C9.72359 111.381 3.07294 94.9952 3.07294 77.0664C3.07294 37.9036 34.8238 6.15276 73.9866 6.15276C87.949 6.15276 100.95 10.1792 111.927 17.1504C127.753 27.1865 139.331 43.3123 143.338 62.2427C143.418 62.6433 143.498 63.0239 143.578 63.4246C144.059 65.8885 144.419 68.3925 144.62 70.9166C144.66 71.4374 144.7 71.9582 144.74 72.4791C144.8 73.5608 144.86 74.6425 144.88 75.7243C144.88 76.185 144.88 76.6458 144.88 77.0865Z" fill="#EFF1FC"/>
<path d="M144.88 77.0864C144.88 77.2066 144.88 77.3468 144.88 77.467C144.88 78.8693 144.82 80.2515 144.74 81.6137C144.58 84.2178 144.259 86.802 143.819 89.326C143.778 89.5263 143.758 89.7267 143.718 89.927C143.678 90.1273 143.638 90.3076 143.618 90.5079H111.907V17.1704C127.733 27.2065 139.311 43.3323 143.318 62.2626C143.398 62.6633 143.478 63.0439 143.558 63.4445C144.039 65.9085 144.399 68.4125 144.6 70.9366C144.64 71.4574 144.68 71.9782 144.72 72.4991C144.78 73.5808 144.84 74.6625 144.86 75.7443C144.88 76.185 144.88 76.6457 144.88 77.0864Z" fill="#4754A1"/>
<path d="M90.7534 81.6337V146.017C93.3777 145.376 95.9618 144.595 98.4658 143.673C98.6661 143.593 98.8665 143.533 99.0668 143.453C111.266 138.825 121.863 130.933 129.796 120.837C129.956 120.636 130.117 120.436 130.257 120.236C131.879 118.132 133.362 115.929 134.744 113.665C134.864 113.465 134.984 113.264 135.105 113.064C139.251 106.053 142.196 98.2604 143.718 89.9671C143.758 89.7667 143.798 89.5664 143.818 89.3661C144.259 86.8421 144.56 84.2579 144.74 81.6537H90.7534V81.6337Z" fill="#E5C5A7"/>
<path d="M143.718 89.947C143.758 89.7467 143.798 89.5464 143.819 89.3461H98.4658V113.645H134.744C134.864 113.445 134.984 113.244 135.105 113.044H99.0668V89.947H143.718Z" fill="#26120C"/>
<path d="M98.4658 143.653C98.6661 143.573 98.8665 143.513 99.0668 143.433V120.816H129.796C129.956 120.616 130.117 120.416 130.257 120.216H98.4658V143.653Z" fill="#26120C"/>
<path d="M30.1163 45.1552C30.1163 45.1552 21.5425 42.0502 26.3502 28.9292C30.5169 17.6111 33.081 6.31296 38.9104 2.58699C44.0386 -0.678246 54.5955 -1.69988 59.7838 4.63026L46.9833 46.898L30.1163 45.1552Z" fill="#26120C"/>
<path d="M52.7926 44.4541C52.7926 44.4541 66.6348 40.7081 64.7718 26.0446C62.8687 11.1807 61.8671 7.51487 61.8671 7.51487L45.581 22.2385L52.7926 44.4541Z" fill="#26120C"/>
<path d="M54.3752 42.6512C54.3752 42.6512 79.3352 44.4541 79.0347 73.6209V82.8957L64.7718 81.0127L54.3752 42.6512Z" fill="white"/>
<path d="M49.8679 143.793C50.0883 143.873 50.3086 143.954 50.529 144.034C57.8607 146.598 65.7534 148 73.9665 148C74.6677 148 75.3688 148 76.0499 147.96C75.9697 147.559 75.8896 147.179 75.8095 146.818C71.5427 128.789 64.2309 104.33 64.2309 104.33L42.5963 103.028L35.8855 102.627C36.9472 109.298 43.2172 126.506 48.045 139.086C48.686 140.769 49.287 142.331 49.8679 143.793Z" fill="#343A40"/>
<path d="M49.0066 117.732C48.8664 124.703 48.5258 131.854 48.045 138.986C48.045 139.026 48.045 139.066 48.045 139.106C47.9649 140.408 47.8648 141.71 47.7646 143.012C37.2678 138.845 28.0129 132.235 20.6612 123.881C20.6011 117.491 20.8014 109.699 21.5025 99.9431L42.5763 103.048L49.0266 103.99C49.1268 108.457 49.1067 113.064 49.0066 117.732Z" fill="#343A40"/>
<path d="M64.2309 104.35C64.2309 104.35 66.114 78.7691 67.9168 71.4574C69.7197 64.1457 71.2221 51.1048 64.8519 46.7979C58.4817 42.491 50.4489 42.0302 46.7029 41.8299C42.9569 41.6296 26.7509 37.7834 22.7845 49.3419C18.8182 60.8804 23.6459 87.3629 21.0818 103.008C21.0818 103.008 40.1323 109.118 64.2309 104.35Z" fill="#6678E6"/>
<path d="M98.8264 122.579C98.8264 122.599 98.8465 122.599 98.8465 122.619C98.8264 122.599 98.8264 122.579 98.8264 122.579Z" fill="#F2AB4B"/>
<path d="M59.7839 21.3971C59.7839 21.3971 63.0691 21.4172 64.3913 18.4925C65.5531 15.9284 63.8304 11.922 59.5836 14.7865L59.7839 21.3971ZM39.872 41.1288C39.872 41.1288 39.1107 48.0198 50.2887 48.0799C53.2734 48.0999 52.973 42.4509 52.973 42.4509L53.5739 24.442L41.0739 23.9813L40.8936 26.0646L40.5931 29.2898L39.872 41.1288Z" fill="#F4B6AC"/>
<path d="M40.6131 29.2698C41.2541 37.3828 53.1932 36.7818 53.1932 36.7818C53.1732 36.902 53.3936 32.9757 53.3936 32.9757C52.1115 32.6953 50.9096 32.7153 50.9096 32.7153C50.9096 32.7153 42.5562 26.3851 42.436 26.4653C42.3959 26.5053 41.6748 26.1848 40.9136 26.0446C40.9136 26.0446 40.553 28.4685 40.6131 29.2698Z" fill="#26120C"/>
<path d="M38.3094 23.1599C38.3094 23.1599 35.0442 23.3803 33.5418 20.5357C32.2397 18.0517 33.7221 13.9452 38.1292 16.5694L38.3094 23.1599Z" fill="#F4B6AC"/>
<path d="M37.9088 23.821C37.9088 23.821 37.5281 35.7001 49.3271 35.3595C60.3648 35.039 64.6316 21.5974 60.9056 8.35622L37.5081 9.01728L37.9088 23.821Z" fill="#F4B6AC"/>
<path d="M51.2301 29.5101C51.2301 29.5101 48.7662 29.9909 47.8046 28.2681" stroke="#231F20" stroke-width="0.733576" stroke-miterlimit="10" stroke-linecap="round" stroke-linejoin="round"/>
<path d="M52.3904 23.1984C52.3904 23.1984 53.0407 24.4158 52.0773 25.5953" stroke="#231F20" stroke-width="0.733576" stroke-miterlimit="10" stroke-linecap="round" stroke-linejoin="round"/>
<path d="M46.4666 18.8324C46.9421 18.8189 47.3167 18.4225 47.3033 17.947C47.2898 17.4715 46.8934 17.0969 46.4179 17.1103C45.9423 17.1238 45.5677 17.5202 45.5812 17.9957C45.5946 18.4713 45.9911 18.8459 46.4666 18.8324Z" fill="#26120C"/>
<path d="M57.2037 18.8525C57.6792 18.8391 58.0538 18.4427 58.0404 17.9671C58.0269 17.4916 57.6305 17.117 57.155 17.1305C56.6794 17.1439 56.3049 17.5403 56.3183 18.0159C56.3318 18.4914 56.7282 18.866 57.2037 18.8525Z" fill="#26120C"/>
<path d="M48.1389 15.9484C48.1389 15.9484 45.8553 15.8483 45.2744 15.7882C44.5933 15.7281 44.0524 15.2874 45.2343 15.0269C46.5564 14.7465 48.3593 14.7665 49.0203 15.2072C49.6614 15.6079 49.3208 16.0686 48.1389 15.9484ZM56.6927 15.8683C56.6927 15.8683 58.9763 15.8082 59.5572 15.7681C59.9979 15.7481 60.9194 15.3675 59.6173 15.0069C58.2952 14.6463 56.5725 14.8066 55.8313 15.087C55.1301 15.3675 55.3305 15.8883 56.6927 15.8683Z" fill="#26120C"/>
<path d="M53.6139 42.5511C53.6139 42.5511 57.9809 44.8548 56.3183 61.842C54.275 82.5953 56.2582 129.971 56.2582 129.971C69.4794 131.794 79.0347 126.285 79.0347 126.285C79.0347 126.285 70.6012 118.633 70.3608 87.7235C70.1004 55.612 73.0851 44.995 53.6139 42.5511ZM5.07614 124.963C16.815 134.078 34.4232 129.791 34.4232 129.791C34.4232 129.791 34.8639 121.397 35.4448 110.44C36.186 96.738 37.1876 79.0095 37.8887 68.7331C39.1708 50.2034 36.9673 41.0888 36.9673 41.0888C23.1251 41.5896 19.1787 47.2787 19.359 72.5993C19.4191 81.2131 17.7765 90.0472 15.593 97.9199C11.3662 113.184 5.07614 124.963 5.07614 124.963Z" fill="white"/>
<path d="M50.529 144.034C50.3086 143.954 50.0883 143.873 49.8679 143.793L48.045 139.086V139.006V138.986V138.966L49.0066 117.712C50.4889 123.861 49.2269 130.492 50.2285 134.719C50.9697 137.844 50.7093 142.03 50.529 144.034Z" fill="#26120C"/>
<path d="M44.4593 85.6802C44.4593 85.6802 49.9481 85.4398 52.9329 85.6602C53.9145 85.7403 55.9577 86.0408 56.0579 84.6986C56.138 83.3364 53.7141 82.8557 50.3287 82.4149C50.3287 82.4149 51.5907 80.0311 54.6556 78.4887C57.7206 76.9462 63.1493 76.6257 63.4297 74.6625C63.61 73.4406 50.8896 75.8644 45.8616 76.5656C40.7934 77.2667 42.376 77.467 42.376 77.467L44.4593 85.6802Z" fill="#F4B6AC"/>
<path d="M11.3462 92.431C25.9296 91.0287 45.8615 87.8236 45.8615 87.8236L44.7798 74.983C44.7798 74.983 26.2701 74.7026 6.63865 76.0647C6.63865 76.0647 -2.3758 93.7531 11.3462 92.431Z" fill="white"/>
<path d="M82.36 54.2498C82.0996 55.7522 80.6773 56.9542 79.1749 56.9542C77.6725 56.9542 76.6709 55.7322 76.9313 54.2498C77.1917 52.7474 78.614 51.5455 80.1164 51.5455C81.6188 51.5455 82.6204 52.7474 82.36 54.2498Z" fill="#4754A1" stroke="#4754A1" stroke-width="1.0591" stroke-miterlimit="10"/>
<path d="M74.7882 54.3704H84.1027C84.9017 54.3704 85.5174 55.0956 85.4064 55.8773L84.9249 58.9417C84.8124 59.5741 84.2539 60.0393 83.6222 60.0394H74.3068C73.5081 60.0391 72.8935 59.3138 73.004 58.5325L73.4845 55.4671V55.4661C73.5771 54.8366 74.1344 54.3704 74.7882 54.3704Z" fill="#4754A1" stroke="#4754A1" stroke-width="0.200321"/>
<path d="M91.1742 101.906H55.2165C54.3552 101.906 53.6941 101.125 53.8143 100.284L60.4249 58.3965C60.525 57.7154 61.126 57.2146 61.8271 57.2146H97.8048C98.6662 57.2146 99.3272 57.9958 99.207 58.8372L92.5964 100.724C92.4762 101.405 91.8753 101.906 91.1742 101.906Z" fill="#26120C"/>
<path d="M6.63861 76.0648C6.63861 76.0648 16.0537 54.1096 17.6362 50.1833C19.2188 46.2771 23.6859 41.5695 34.8839 41.1488L23.9664 79.0696L6.63861 76.0648Z" fill="white"/>
<path d="M37.6884 16.3089C37.6884 16.3089 39.6516 17.7913 39.8519 15.3875C40.0722 12.9836 42.0554 11.0605 45.1203 11.6415C48.1852 12.2224 53.8143 11.7617 55.9577 8.47639C55.9577 8.47639 57.4801 10.9003 61.3063 9.99883L60.9056 7.49482L37.0674 8.73681L37.6884 16.3089Z" fill="#26120C"/>
<path d="M61.3263 10.0189C61.3263 10.0189 66.3543 8.47647 63.7301 3.88912C60.8856 -1.05881 55.5771 3.42838 55.5771 3.42838L55.9777 8.47647L61.3263 10.0189Z" fill="#26120C"/>
<path d="M37.4681 74.963C34.303 74.983 28.3735 75.2234 23.6259 75.1834M17.1355 91.81C23.9063 91.0288 31.0979 90.0472 36.5867 89.2259" stroke="#DDDDDD" stroke-width="0.733576" stroke-miterlimit="10" stroke-linecap="round" stroke-linejoin="round"/>
<path d="M29.1146 63.2042L25.0882 75.1834" stroke="#DDDDDD" stroke-width="0.733576" stroke-miterlimit="10" stroke-linecap="round" stroke-linejoin="round"/>
<path d="M97.1437 72.6794C95.0804 72.2387 92.6565 71.7779 91.3144 71.6778C88.6501 71.4774 88.2895 69.2739 91.695 69.354C93.2375 69.3941 95.5812 69.7547 97.7046 70.1553C100.269 70.596 99.187 73.1 97.1437 72.6794ZM98.8064 68.3124C96.6029 67.5912 93.2375 66.5295 91.5548 66.249C88.9306 65.7883 88.7904 63.5447 92.1557 63.9654C93.6381 64.1457 96.5628 64.9069 99.3673 65.6881C99.5476 65.7282 100.048 68.713 98.8064 68.3124Z" fill="#F4B6AC"/>
<path d="M98.8063 66.1088C97.1837 65.4477 95.5411 64.7867 94.5195 64.5062C91.9554 63.8051 92.0355 61.5615 95.3408 62.2826C96.4225 62.523 97.985 63.0439 99.6277 63.6649C99.828 63.745 99.0467 66.2089 98.8063 66.1088ZM98.4257 70.5359C95.8015 69.8348 92.2559 68.9734 90.6733 68.8532C88.009 68.6529 87.6485 66.4493 91.0539 66.5295C92.8768 66.5695 96.2823 67.0904 99.0668 67.5711C99.2671 67.5912 98.6461 70.596 98.4257 70.5359Z" fill="#F4B6AC"/>
<path d="M99.6076 63.6649C99.6076 63.6649 101.651 65.3276 101.11 68.8131C100.489 72.7995 98.6661 74.1617 96.7831 74.1217L98.0451 65.9886L99.6076 63.6649Z" fill="#F4B6AC"/>
<path d="M114.451 48.0798H87.9691C91.054 35.2792 92.3761 16.9699 92.3761 16.9699H118.839C118.859 16.9699 117.757 36.381 114.451 48.0798Z" fill="white"/>
<path d="M104.756 15.2272L104.215 18.873C104.135 19.454 104.536 19.9948 105.117 20.095C105.697 20.1751 106.238 19.7745 106.339 19.1935L106.899 15.3674C107.06 14.2456 106.278 13.1839 105.157 13.0236C104.015 12.8434 102.953 13.6446 102.793 14.7664C102.713 15.3474 102.593 16.1286 102.472 16.99" stroke="#26120C" stroke-width="0.441107" stroke-miterlimit="10" stroke-linecap="round" stroke-linejoin="round"/>
<path d="M95.8016 26.7256H105.838" stroke="#26120C" stroke-width="0.441107" stroke-miterlimit="10" stroke-linecap="round" stroke-linejoin="round"/>
<path d="M95.421 29.7504H112.949" stroke="#26120C" stroke-width="0.441107" stroke-miterlimit="10" stroke-linecap="round" stroke-linejoin="round"/>
<path d="M94.9202 32.9956H112.448" stroke="#26120C" stroke-width="0.441107" stroke-miterlimit="10" stroke-linecap="round" stroke-linejoin="round"/>
<path d="M94.3593 36.3209H111.907" stroke="#26120C" stroke-width="0.441107" stroke-miterlimit="10" stroke-linecap="round" stroke-linejoin="round"/>
<path d="M40.0522 38.4645C40.0522 38.4645 39.7117 46.2169 50.3087 48.0799C50.3087 48.0799 46.3423 54.6505 41.6348 50.4437C36.9272 46.237 38.7301 39.4862 40.0522 38.4645Z" fill="#4754A1"/>
<path d="M53.053 40.5279C53.053 40.5279 52.8727 48.1802 50.2886 48.08C50.2886 48.08 52.5522 52.2867 54.896 50.6842C57.2397 49.0816 53.053 40.5279 53.053 40.5279Z" fill="#4754A1"/>
<path d="M141.595 98.5007C140.954 100.504 140.253 102.467 139.451 104.37C138.35 103.889 137.568 102.788 137.568 101.506C137.568 99.7828 138.971 98.3805 140.693 98.3805C141.014 98.3605 141.314 98.4006 141.595 98.5007Z" fill="#B56B36"/>
<path d="M144.88 77.0864C144.88 77.2066 144.88 77.3468 144.88 77.467C139.452 69.4141 131.038 59.5383 126.17 66.5696C118.558 77.5872 126.31 63.9854 127.813 62.6433C130.056 60.6401 135.766 59.7987 144.86 75.7242C144.88 76.185 144.88 76.6457 144.88 77.0864Z" fill="#26120C"/>
<path d="M144.74 72.4991C139.892 63.7451 130.657 50.2835 122.885 57.1946C114.772 64.4062 123.045 54.0095 126.831 52.1465C131.759 49.7226 139.552 60.6 144.62 70.9566C144.66 71.4574 144.7 71.9783 144.74 72.4991Z" fill="#26120C"/>
<path d="M143.558 63.4445C138.009 54.43 130.056 43.793 125.349 47.539C117.536 53.7489 124.407 46.3771 127.092 45.1752C129.315 44.1736 133.742 45.3755 143.338 62.2626C143.418 62.6432 143.498 63.0438 143.558 63.4445Z" fill="#26120C"/>
</g>
<defs>
<clipPath id="clip0_39695_1273">
<rect width="148" height="148" fill="white"/>
</clipPath>
</defs>
</svg>
