<svg width="134" height="44" viewBox="0 0 134 44" fill="none" xmlns="http://www.w3.org/2000/svg">
<g clip-path="url(#clip0_39695_1355)">
<path fill-rule="evenodd" clip-rule="evenodd" d="M128.483 33.4954C131.161 33.6096 133.276 35.8163 133.276 38.4974C133.276 41.1791 131.162 43.3853 128.483 43.4995C128.471 43.5 128.458 43.5 128.446 43.5C128.188 43.5 127.929 43.4779 127.675 43.4353C129.777 43.426 131.478 41.7168 131.478 39.614C131.478 37.5034 129.766 35.7918 127.656 35.7918C125.545 35.7918 123.834 37.5034 123.834 39.614C123.834 39.617 123.834 39.6204 123.834 39.6233C123.836 39.9101 123.867 40.1968 123.925 40.4777C123.667 39.8616 123.533 39.1984 123.533 38.5298C123.533 35.7697 125.76 33.5253 128.52 33.5042L128.483 33.4954H128.483Z" fill="#6678E6"/>
<path fill-rule="evenodd" clip-rule="evenodd" d="M127.509 36.2516H127.803C126.385 36.3099 125.267 37.476 125.267 38.8945C125.267 40.3557 126.452 41.5404 127.913 41.5404C129.373 41.5404 130.557 40.3566 130.559 38.8969C130.557 38.4862 130.462 38.0808 130.284 37.7118C130.681 38.2833 130.895 38.9636 130.895 39.6596C130.895 41.5413 129.369 43.0682 127.486 43.0682C125.604 43.0682 124.078 41.5418 124.078 39.6596C124.078 37.7774 125.604 36.2511 127.486 36.2511C127.494 36.2511 127.501 36.2511 127.509 36.2511L127.509 36.2516H127.509Z" fill="#6678E6"/>
<path fill-rule="evenodd" clip-rule="evenodd" d="M127.932 36.6099C127.943 36.6094 127.956 36.6089 127.968 36.6089C129.237 36.6089 130.265 37.6372 130.265 38.9057C130.265 40.1601 129.259 41.1825 128.005 41.2021C128.785 41.0144 129.334 40.3169 129.334 39.515C129.334 38.5558 128.556 37.7784 127.597 37.7784C126.638 37.7784 125.861 38.5558 125.861 39.515C125.861 39.6532 125.877 39.7919 125.91 39.9258C125.737 39.5978 125.646 39.2312 125.646 38.8602C125.646 37.598 126.669 36.5746 127.93 36.5731L127.931 36.6103L127.932 36.6099Z" fill="#6678E6"/>
<path d="M80.1049 37.7583C80.099 38.0092 80.0779 38.2622 80.0402 38.5117C79.996 38.7793 79.9274 39.0459 79.8377 39.3018C79.7495 39.5655 79.6353 39.8218 79.4985 40.0645C79.3637 40.3027 79.1927 40.5198 78.9922 40.7071C78.7971 40.8924 78.5697 41.0418 78.3222 41.1482C78.0678 41.2634 77.7918 41.3232 77.5129 41.3232C77.5012 41.3232 77.4884 41.3227 77.4766 41.3227C77.4678 41.3222 77.4575 41.3227 77.4482 41.3227C77.1806 41.3227 76.9159 41.2595 76.6772 41.1384C76.4375 41.0134 76.2321 40.8301 76.0802 40.6061L76.0067 41.0193C75.9866 41.0992 75.9219 41.1605 75.8415 41.1757C75.7072 41.2129 75.568 41.232 75.4288 41.232C75.4067 41.232 75.3851 41.2315 75.3636 41.2306C75.3376 41.2325 75.3106 41.2335 75.2837 41.2335C75.1641 41.2335 75.045 41.2139 74.9317 41.1757C74.8489 41.1757 74.8215 41.0928 74.8308 41.0193L76.2361 33.9728C76.2508 33.8831 76.3213 33.813 76.4105 33.7983H76.6218L77.2835 33.7988H77.4766C77.5139 33.813 77.5462 33.839 77.5683 33.8723C77.5752 33.8885 77.5781 33.9057 77.5781 33.9228C77.5781 33.94 77.5747 33.9571 77.5678 33.9728L77.1909 35.8932L77.136 36.1506C77.136 36.2422 77.0904 36.3344 77.0718 36.426L76.9889 36.6834L76.8973 36.9039C76.9801 36.7785 77.0757 36.6608 77.1821 36.555C77.308 36.4368 77.4472 36.3314 77.5958 36.2427C77.7477 36.1496 77.9114 36.0751 78.0825 36.0226C78.2491 35.9614 78.4251 35.93 78.602 35.93C78.6065 35.93 78.6109 35.93 78.6153 35.93C78.6266 35.9305 78.6378 35.93 78.6491 35.93C78.8158 35.93 78.9819 35.9584 79.1397 36.0133C79.2843 36.055 79.4191 36.1275 79.5343 36.2246C79.6451 36.3104 79.7382 36.4167 79.8098 36.5368C79.8799 36.6584 79.9353 36.7888 79.9755 36.9231C80.0201 37.0569 80.0509 37.1961 80.0671 37.3363C80.0715 37.4064 80.074 37.4769 80.074 37.5475C80.074 37.6181 80.0715 37.6887 80.0676 37.7588L80.1044 37.7593L80.1049 37.7583ZM78.7177 37.8867C78.7177 37.8039 78.7177 37.7122 78.7177 37.6112C78.7094 37.5206 78.681 37.4328 78.6349 37.3539C78.5604 37.1902 78.3972 37.0853 78.2173 37.0853C78.2035 37.0853 78.1898 37.0863 78.1756 37.0868C78.0065 37.0878 77.8408 37.1358 77.6977 37.225C77.5257 37.3294 77.3708 37.4598 77.2384 37.6108C77.0938 37.7867 76.9669 37.9784 76.862 38.1808C76.7502 38.3999 76.6689 38.6362 76.6228 38.8788L76.4757 39.6047C76.5821 39.7763 76.7228 39.9233 76.8894 40.0365C77.0419 40.1272 77.2164 40.1748 77.3938 40.1748C77.4002 40.1748 77.4066 40.1748 77.4124 40.1748C77.4213 40.1743 77.4291 40.1748 77.4374 40.1748C77.5678 40.1748 77.6957 40.14 77.808 40.0733C77.9379 40.0091 78.0516 39.914 78.1384 39.7978C78.2467 39.6792 78.3339 39.542 78.3957 39.3935C78.4702 39.2391 78.5354 39.0788 78.5883 38.9155C78.6334 38.7464 78.6712 38.5739 78.6986 38.4014C78.705 38.3176 78.7084 38.2332 78.7084 38.1489C78.7084 38.0646 78.705 37.9798 78.6986 37.896L78.7172 37.8872L78.7177 37.8867ZM85.6907 36.2515C85.6927 36.2775 85.6941 36.3035 85.6941 36.3295C85.6941 36.3555 85.6927 36.3814 85.6907 36.4074C85.6794 36.4697 85.6642 36.5314 85.6446 36.5912C85.525 36.9128 85.3873 37.2524 85.2496 37.6014C85.1118 37.9504 84.9466 38.318 84.7628 38.6852C84.579 39.0523 84.3771 39.4479 84.1472 39.8429C83.9173 40.238 83.6511 40.6512 83.3477 41.0742L82.0429 42.9113C82.0135 42.9603 81.9724 43.001 81.9238 43.0309C81.8665 43.0637 81.8047 43.0887 81.7405 43.1044C81.6964 43.1079 81.6518 43.1103 81.6072 43.1103C81.5626 43.1103 81.518 43.1084 81.4739 43.1044H81.1156H80.7386C80.6685 43.0946 80.5999 43.0726 80.5367 43.0402C80.5019 43.0236 80.4798 42.9883 80.4798 42.9495C80.4798 42.9432 80.4803 42.9368 80.4813 42.9299C80.4901 42.875 80.5156 42.8236 80.5543 42.7829L81.7675 41.1752L80.9773 36.5819C80.9773 36.5363 80.9773 36.4903 80.9773 36.4349C80.9749 36.4138 80.9739 36.3922 80.9739 36.3707C80.9739 36.3491 80.9749 36.3275 80.9769 36.3064C80.972 36.281 80.9695 36.2545 80.9695 36.2285C80.9695 36.2025 80.9724 36.1761 80.9773 36.1506C81.0092 36.1109 81.0499 36.079 81.0965 36.0589L81.3258 36.0133L82.0067 36.0138C82.038 36.0099 82.0704 36.0079 82.1027 36.0079C82.1351 36.0079 82.1674 36.0099 82.1993 36.0133C82.2351 36.0315 82.264 36.0599 82.2821 36.0957C82.2856 36.1187 82.287 36.1422 82.287 36.1648C82.287 36.1878 82.2856 36.2114 82.2821 36.2339L82.7689 39.5778H82.7694C82.9439 39.3116 83.1095 39.045 83.2561 38.7695C83.4026 38.494 83.5316 38.2087 83.6512 37.9333C83.7708 37.6578 83.8899 37.3544 83.9913 37.0696C84.0923 36.7848 84.1844 36.4819 84.2668 36.1511C84.2756 36.1128 84.2947 36.078 84.3212 36.0496C84.3565 36.0158 84.4016 35.9932 84.4501 35.9854H84.6795L85.0564 35.9859C85.1339 35.9751 85.2123 35.9702 85.2902 35.9702C85.3682 35.9702 85.4471 35.9756 85.5245 35.9849C85.6069 35.9849 85.653 36.0677 85.653 36.1413L85.6902 36.252L85.6907 36.2515ZM90.9364 34.6625C90.9118 34.7747 90.878 34.886 90.8349 34.9928C90.7952 35.0791 90.7354 35.1546 90.6604 35.2129C90.5795 35.2683 90.4888 35.309 90.3937 35.332C90.33 35.3384 90.2653 35.3413 90.2011 35.3413C90.1369 35.3413 90.0722 35.3384 90.008 35.3325C89.9472 35.3389 89.8855 35.3418 89.8247 35.3418C89.7639 35.3418 89.7016 35.3389 89.6409 35.333C89.5605 35.3139 89.487 35.2727 89.4296 35.2134C89.3772 35.1526 89.3473 35.0737 89.3473 34.9928C89.3389 34.9384 89.335 34.8825 89.335 34.8276C89.335 34.7727 89.3389 34.7169 89.3473 34.6625C89.3713 34.5497 89.4056 34.4385 89.4482 34.3316C89.5296 34.1561 89.6904 34.0297 89.8806 33.9919C89.9438 33.9841 90.0085 33.9802 90.0732 33.9802C90.1379 33.9802 90.2026 33.9841 90.2663 33.9919C90.3286 33.9841 90.3918 33.9797 90.4545 33.9797C90.5173 33.9797 90.5805 33.9841 90.6428 33.9919C90.7251 34.0066 90.7996 34.0488 90.8545 34.1115C90.904 34.1743 90.9324 34.2512 90.9373 34.3316C90.9437 34.3801 90.9471 34.4296 90.9471 34.4786C90.9471 34.5277 90.9437 34.5767 90.9373 34.6257V34.6629L90.9364 34.6625ZM89.5487 41.0928C89.5394 41.1276 89.5198 41.16 89.4938 41.1845C89.4595 41.2149 89.4183 41.2369 89.3742 41.2487C89.338 41.2526 89.3007 41.2551 89.2639 41.2551C89.2272 41.2551 89.1899 41.2531 89.1537 41.2492H88.5017C88.4694 41.2531 88.437 41.2551 88.4047 41.2551C88.3723 41.2551 88.34 41.2531 88.3081 41.2487C88.2625 41.2487 88.2253 41.2487 88.2165 41.1845C88.2121 41.1698 88.2096 41.1541 88.2096 41.1389C88.2096 41.1232 88.2121 41.1075 88.217 41.0933L89.1355 36.3162C89.1468 36.2819 89.1654 36.2506 89.1909 36.2246C89.2247 36.1937 89.2659 36.1717 89.31 36.1599C89.3448 36.154 89.3806 36.1511 89.4159 36.1511C89.4512 36.1511 89.4865 36.154 89.5213 36.1599C89.5757 36.155 89.6316 36.1525 89.6865 36.1525C89.7414 36.1525 89.7972 36.1555 89.8516 36.1599C89.9065 36.1545 89.9619 36.152 90.0173 36.152C90.0727 36.152 90.1281 36.155 90.1825 36.1599C90.2139 36.1535 90.2467 36.1506 90.2791 36.1506C90.3114 36.1506 90.3438 36.1535 90.3756 36.1599C90.4305 36.1599 90.4584 36.1599 90.4673 36.2241C90.4717 36.2398 90.4736 36.2545 90.4736 36.2707C90.4736 36.2863 90.4717 36.3015 90.4673 36.3162L89.5487 41.0933L89.5492 41.0938L89.5487 41.0928ZM95.9796 37.4181C95.984 37.4784 95.9864 37.5402 95.9864 37.6014C95.9864 37.6622 95.984 37.7245 95.9796 37.7848C95.9796 37.9132 95.9796 38.0421 95.9154 38.1705L95.3551 41.0188C95.3492 41.0531 95.3331 41.0855 95.309 41.11C95.2713 41.1404 95.2277 41.1624 95.1806 41.1742C95.1444 41.1786 95.1071 41.1806 95.0703 41.1806C95.0336 41.1806 94.9963 41.1786 94.9596 41.1747L94.3077 41.1752C94.2753 41.1786 94.243 41.1806 94.2111 41.1806C94.1787 41.1806 94.1464 41.1786 94.1145 41.1742C94.0783 41.1629 94.0464 41.1404 94.0229 41.11C94.018 41.0953 94.0155 41.0801 94.0155 41.0644C94.0155 41.0487 94.018 41.033 94.0229 41.0188L94.5924 38.1524C94.5944 38.1083 94.5959 38.0637 94.5959 38.0191C94.5959 37.9744 94.5944 37.9294 94.5924 37.8857C94.5924 37.7936 94.5924 37.7205 94.5924 37.647C94.5924 37.6402 94.5929 37.6333 94.5929 37.6269C94.5929 37.4956 94.5576 37.3657 94.4915 37.2524C94.4228 37.1534 94.3096 37.0936 94.1885 37.0936C94.1729 37.0936 94.1577 37.0946 94.142 37.0966C93.9832 37.1025 93.8273 37.1505 93.692 37.2343C93.5219 37.3328 93.369 37.4608 93.2421 37.6108C93.094 37.7803 92.9666 37.9695 92.8651 38.171C92.7534 38.3847 92.6725 38.6146 92.6264 38.8508L92.1941 41.0188C92.1848 41.0521 92.1691 41.0835 92.1485 41.1105C92.1108 41.1409 92.0671 41.1629 92.0201 41.1747C91.9833 41.1791 91.9466 41.1811 91.9093 41.1811C91.8726 41.1811 91.8353 41.1791 91.799 41.1752L91.1471 41.1757C91.1148 41.1791 91.0824 41.1811 91.0506 41.1811C91.0182 41.1811 90.9859 41.1791 90.954 41.1747C90.9172 41.1634 90.8854 41.1409 90.8623 41.1105C90.8555 41.0963 90.8511 41.0806 90.8511 41.0649C90.8511 41.0487 90.855 41.0335 90.8623 41.0193L91.7809 36.2329C91.7829 36.1947 91.799 36.1579 91.8275 36.1319C91.8539 36.1006 91.8887 36.0785 91.9279 36.0672H92.1211L92.6637 36.0677H92.8289C92.8289 36.0677 92.8931 36.0677 92.9024 36.1319C92.9087 36.1476 92.9122 36.1648 92.9122 36.1819C92.9122 36.1991 92.9087 36.2163 92.9014 36.2324L92.7548 37.0132C92.8372 36.877 92.9367 36.75 93.0489 36.6368C93.1778 36.5035 93.3234 36.3858 93.4808 36.2878C93.6459 36.1785 93.8258 36.0918 94.0136 36.0305C94.2057 35.9638 94.4076 35.93 94.6106 35.9295C94.6267 35.9295 94.6429 35.929 94.6586 35.929C94.8561 35.929 95.0522 35.9668 95.235 36.0403C95.3968 36.1035 95.5394 36.2084 95.6487 36.3432C95.7585 36.4667 95.8379 36.6152 95.8781 36.775C95.9208 36.9402 95.9428 37.1108 95.9428 37.2819C95.9428 37.2907 95.9423 37.3 95.9423 37.3083L95.9796 37.4186V37.4181ZM100.867 34.1752V34.2762C100.867 34.3252 100.867 34.3801 100.867 34.4419C100.868 34.4718 100.869 34.5027 100.869 34.5331C100.869 34.5634 100.868 34.5948 100.866 34.6252C100.869 34.6551 100.871 34.686 100.871 34.7169C100.871 34.7473 100.869 34.7786 100.867 34.8085C100.849 34.8561 100.827 34.9021 100.802 34.9467C100.789 34.9507 100.775 34.9531 100.761 34.9531C100.747 34.9531 100.733 34.9507 100.719 34.9463C100.706 34.9502 100.692 34.9516 100.678 34.9516C100.664 34.9516 100.651 34.9502 100.637 34.9463H100.517H100.37H100.196C100.193 34.9463 100.191 34.9463 100.189 34.9463C100.091 34.9463 99.994 34.9619 99.9018 34.9918C99.8175 35.0266 99.742 35.0801 99.6812 35.1482C99.6156 35.2286 99.5626 35.3188 99.5249 35.4148C99.4822 35.5438 99.4484 35.6766 99.4239 35.8099L99.3411 36.2236H100.205C100.21 36.2226 100.215 36.2226 100.22 36.2226C100.257 36.2226 100.292 36.2398 100.315 36.2697C100.32 36.2966 100.324 36.3246 100.324 36.352C100.324 36.38 100.32 36.4074 100.315 36.4349C100.316 36.4579 100.318 36.4805 100.318 36.5035C100.318 36.526 100.317 36.5491 100.315 36.5721C100.319 36.6025 100.321 36.6334 100.321 36.6643C100.321 36.6951 100.319 36.7255 100.315 36.7559C100.306 36.826 100.288 36.8941 100.26 36.9584C100.26 37.0226 100.26 37.0775 100.195 37.1328C100.174 37.1819 100.143 37.226 100.104 37.2613C100.093 37.2637 100.082 37.2652 100.072 37.2652C100.014 37.2652 99.9626 37.226 99.9474 37.1691L99.0293 37.1701L98.1838 41.3683C98.1358 41.6374 98.052 41.9006 97.9353 42.1486C97.8436 42.3604 97.7089 42.5515 97.5402 42.7089C97.378 42.8652 97.1834 42.9843 96.9707 43.0579C96.7408 43.1309 96.5001 43.1686 96.2595 43.1686C96.2487 43.1686 96.2369 43.1682 96.2261 43.1682C96.1487 43.1765 96.0703 43.1814 95.9918 43.1814C95.9139 43.1814 95.8355 43.177 95.758 43.1682C95.6737 43.1559 95.5928 43.128 95.5193 43.0853C95.5149 43.074 95.513 43.0613 95.513 43.049C95.513 43.0368 95.5149 43.024 95.5193 43.0123C95.5159 42.9961 95.5144 42.9789 95.5144 42.9618C95.5144 42.9451 95.5159 42.928 95.5198 42.9118C95.5232 42.8951 95.5198 42.8476 95.5198 42.801V42.6358C95.5198 42.5805 95.5198 42.5162 95.5198 42.452L95.5752 42.2775C95.5924 42.23 95.6139 42.1839 95.6389 42.1393C95.662 42.1119 95.6953 42.0952 95.7306 42.0937H95.7958H95.8693H96.0806C96.0874 42.0937 96.0948 42.0937 96.1016 42.0937C96.1982 42.0937 96.2943 42.0751 96.3835 42.0383C96.4678 42.0094 96.5418 41.955 96.5947 41.8825C96.6614 41.7996 96.7138 41.706 96.7511 41.607C96.8026 41.4771 96.8398 41.3408 96.8619 41.2031L97.6794 37.1789L97.0731 37.1794C97.0579 37.1863 97.0427 37.1892 97.0266 37.1892C97.0104 37.1892 96.9947 37.1858 96.981 37.1794C96.9717 37.151 96.9668 37.1216 96.9668 37.0917C96.9668 37.0623 96.9717 37.0324 96.981 37.0044V36.8662C96.9795 36.8358 96.9785 36.8049 96.9785 36.7745C96.9785 36.7442 96.9795 36.7128 96.981 36.6829C96.979 36.651 96.9775 36.6187 96.9775 36.5868C96.9775 36.5545 96.979 36.5221 96.981 36.4903C96.9976 36.426 97.0226 36.3643 97.054 36.3064C97.0805 36.2609 97.1114 36.2172 97.1466 36.1775C97.1765 36.1437 97.2197 36.1236 97.2658 36.1226H97.8544L97.9554 35.5987C98.0088 35.3237 98.0956 35.0541 98.2122 34.7992C98.3157 34.5889 98.4519 34.3963 98.6166 34.2296C98.7843 34.0757 98.9808 33.9571 99.1955 33.8807C99.4249 33.8076 99.6656 33.7699 99.9062 33.7699C99.917 33.7699 99.9288 33.7704 99.9396 33.7704L100.215 33.7709H100.472L100.665 33.8351C100.71 33.8444 100.752 33.8669 100.785 33.8993C100.788 33.911 100.789 33.9233 100.789 33.936C100.789 33.9483 100.788 33.9606 100.785 33.9728C100.788 33.9924 100.789 34.013 100.789 34.0326C100.789 34.0522 100.788 34.0723 100.785 34.0924L100.867 34.1752H100.867ZM105.295 37.9514C105.295 37.9548 105.295 37.9597 105.295 37.9632C105.295 38.5028 105.191 39.0391 104.992 39.54C104.889 39.7964 104.756 40.0409 104.597 40.2659C104.432 40.4963 104.233 40.7012 104.009 40.8723C103.773 41.0477 103.508 41.185 103.228 41.2766C102.918 41.3796 102.593 41.433 102.266 41.433C102.256 41.433 102.246 41.433 102.236 41.433C102.228 41.433 102.219 41.433 102.21 41.433C101.908 41.433 101.607 41.3889 101.317 41.3041C101.077 41.2281 100.855 41.1021 100.665 40.937C100.486 40.7698 100.35 40.5615 100.27 40.3306C100.185 40.0811 100.141 39.8179 100.141 39.5537C100.141 39.543 100.141 39.5322 100.141 39.5219C100.144 39.2547 100.17 38.9852 100.216 38.7224C100.264 38.4524 100.341 38.1872 100.444 37.9328C100.548 37.6779 100.682 37.4328 100.84 37.2069C101.002 36.975 101.201 36.7696 101.428 36.601C101.664 36.4256 101.929 36.2883 102.208 36.1962C102.518 36.0932 102.844 36.0403 103.171 36.0403C103.18 36.0403 103.191 36.0403 103.201 36.0403C103.209 36.0403 103.218 36.0403 103.227 36.0403C103.528 36.0403 103.83 36.0839 104.119 36.1692C104.36 36.2452 104.582 36.3711 104.772 36.5363C104.947 36.7059 105.082 36.9133 105.167 37.1427C105.252 37.3921 105.295 37.6554 105.295 37.9195C105.295 37.9303 105.295 37.9411 105.295 37.9514L105.296 37.9519L105.295 37.9514ZM103.899 38.0524C103.906 37.9852 103.91 37.9176 103.91 37.8499C103.91 37.7828 103.906 37.7147 103.898 37.648C103.87 37.5411 103.82 37.4407 103.751 37.3539C103.677 37.2745 103.585 37.2118 103.484 37.1696C103.355 37.1275 103.219 37.1059 103.083 37.1059C103.082 37.1059 103.081 37.1059 103.08 37.1059C103.077 37.1059 103.075 37.1059 103.072 37.1059C102.907 37.1059 102.744 37.1407 102.593 37.2069C102.453 37.2799 102.325 37.3765 102.217 37.4916C102.102 37.6157 102.003 37.7553 101.923 37.9048C101.839 38.0597 101.771 38.223 101.72 38.3921C101.667 38.5621 101.626 38.7386 101.601 38.9155C101.594 38.9994 101.591 39.0837 101.591 39.168C101.591 39.2523 101.594 39.3371 101.601 39.4204C101.6 39.4371 101.6 39.4542 101.6 39.4704C101.6 39.5871 101.616 39.7032 101.647 39.816C101.674 39.9263 101.724 40.0297 101.794 40.1189C101.871 40.1953 101.961 40.2576 102.06 40.3027C102.189 40.3448 102.325 40.3669 102.462 40.3669C102.462 40.3669 102.463 40.3669 102.465 40.3669C102.47 40.3674 102.476 40.3674 102.481 40.3674C102.641 40.3674 102.8 40.3297 102.942 40.2571C103.088 40.1929 103.22 40.0993 103.328 39.9816C103.443 39.8571 103.542 39.7179 103.622 39.5684C103.704 39.4101 103.773 39.243 103.825 39.0719C103.877 38.9013 103.918 38.7249 103.944 38.5479C103.95 38.4656 103.953 38.3827 103.953 38.2999C103.953 38.2171 103.95 38.1342 103.944 38.0514L103.898 38.0524H103.899ZM112.167 34.5703C112.162 34.6429 112.136 34.7129 112.093 34.7723C112.028 34.8703 111.953 34.9624 111.872 35.0472L109.41 37.6475L110.871 40.7433C110.898 40.8031 110.919 40.8644 110.935 40.9276C110.939 40.9502 110.941 40.9737 110.941 40.9968C110.941 41.0193 110.939 41.0428 110.935 41.0654C110.941 41.0865 110.943 41.108 110.943 41.1296C110.943 41.1512 110.94 41.1727 110.935 41.1938C110.905 41.2335 110.863 41.2629 110.816 41.2766H110.586H110.209L109.842 41.2771C109.805 41.2806 109.768 41.283 109.731 41.283C109.695 41.283 109.657 41.281 109.621 41.2771C109.577 41.26 109.536 41.235 109.502 41.2036C109.479 41.1683 109.461 41.1315 109.447 41.0928L107.977 37.8039L107.334 41.111C107.325 41.1463 107.306 41.1786 107.279 41.2031C107.242 41.2369 107.198 41.2614 107.15 41.2761H106.921L106.241 41.2766C106.207 41.2801 106.173 41.2825 106.14 41.2825C106.106 41.2825 106.072 41.2806 106.039 41.2761C105.997 41.2644 105.962 41.2384 105.938 41.2031C105.928 41.1894 105.924 41.1737 105.924 41.1575C105.924 41.1409 105.928 41.1252 105.938 41.1119L107.242 34.4144C107.244 34.3757 107.26 34.3394 107.288 34.3135C107.325 34.2826 107.369 34.261 107.416 34.2488H107.646H107.995H108.326C108.359 34.2448 108.393 34.2434 108.427 34.2434C108.461 34.2434 108.494 34.2448 108.528 34.2488C108.568 34.2576 108.604 34.2806 108.629 34.313C108.636 34.3292 108.64 34.3463 108.64 34.3635C108.64 34.3806 108.636 34.3978 108.629 34.4139L108.041 37.3814L110.614 34.4414L110.724 34.3218C110.774 34.289 110.83 34.264 110.889 34.2488H111.119H111.468H111.817C111.852 34.2424 111.887 34.239 111.923 34.239C111.958 34.239 111.994 34.2424 112.028 34.2488C112.07 34.2537 112.108 34.2772 112.13 34.313C112.134 34.3296 112.136 34.3468 112.136 34.3635C112.136 34.3806 112.134 34.3978 112.13 34.4139L112.167 34.5703H112.167ZM116.576 37.4C116.576 37.4078 116.576 37.4166 116.576 37.4245C116.576 37.6563 116.52 37.8843 116.411 38.0887C116.278 38.3097 116.091 38.4935 115.869 38.6215C115.584 38.7857 115.273 38.9013 114.95 38.9611C114.543 39.0405 114.127 39.0817 113.712 39.0817C113.675 39.0817 113.636 39.0812 113.6 39.0812H113.114C113.111 39.1214 113.11 39.1641 113.11 39.2047C113.11 39.2459 113.111 39.2881 113.113 39.3288C113.113 39.4023 113.113 39.4758 113.113 39.5493C113.112 39.5665 113.112 39.5846 113.112 39.6023C113.112 39.8218 113.19 40.0346 113.334 40.2012C113.515 40.3463 113.74 40.4252 113.972 40.4252C114.001 40.4252 114.031 40.4238 114.06 40.4213C114.067 40.4213 114.076 40.4213 114.084 40.4213C114.288 40.4213 114.493 40.4027 114.693 40.3664L115.18 40.2556L115.538 40.1365C115.572 40.1326 115.605 40.1306 115.639 40.1306C115.673 40.1306 115.707 40.1326 115.74 40.137C115.754 40.1302 115.77 40.1267 115.786 40.1267C115.802 40.1267 115.818 40.1302 115.832 40.1365C115.838 40.1561 115.841 40.1762 115.841 40.1963C115.841 40.2164 115.838 40.2365 115.832 40.2561C115.832 40.311 115.832 40.3846 115.832 40.4674C115.834 40.5051 115.835 40.5434 115.835 40.5816C115.835 40.6198 115.834 40.6585 115.832 40.6968C115.813 40.7693 115.788 40.8399 115.758 40.908C115.734 40.9678 115.696 41.0213 115.648 41.0644C115.584 41.1262 115.504 41.1708 115.418 41.1933C115.284 41.2423 115.145 41.282 115.005 41.3124L114.463 41.4041C114.26 41.4041 114.059 41.4041 113.857 41.4041C113.833 41.4051 113.807 41.4051 113.782 41.4051C113.497 41.4051 113.212 41.3678 112.938 41.2938C112.702 41.2306 112.483 41.1173 112.294 40.9629C112.12 40.8115 111.988 40.6188 111.909 40.4022C111.824 40.1596 111.78 39.9037 111.78 39.6464C111.78 39.6317 111.78 39.6175 111.78 39.6032C111.784 39.3449 111.809 39.0861 111.854 38.8312C111.893 38.5553 111.964 38.2832 112.065 38.023C112.166 37.7558 112.295 37.5 112.45 37.2608C112.607 37.0196 112.8 36.802 113.02 36.6177C113.256 36.4305 113.519 36.281 113.801 36.1766C114.102 36.0668 114.422 36.0109 114.743 36.0109C114.762 36.0109 114.783 36.0114 114.802 36.0119C114.823 36.0119 114.844 36.0109 114.865 36.0109C115.128 36.0109 115.388 36.0516 115.638 36.131C115.847 36.1922 116.041 36.2957 116.208 36.4339C116.482 36.6613 116.643 36.9971 116.649 37.3524L116.576 37.3985L116.576 37.4ZM115.254 37.501C115.253 37.4961 115.253 37.4912 115.253 37.4867C115.253 37.3524 115.192 37.226 115.087 37.1422C114.965 37.0456 114.813 36.9927 114.657 36.9927C114.638 36.9927 114.619 36.9936 114.601 36.9946C114.599 36.9951 114.595 36.9951 114.593 36.9951C114.431 36.9951 114.271 37.0299 114.124 37.0961C113.985 37.1569 113.861 37.2446 113.756 37.3534C113.644 37.4662 113.551 37.597 113.481 37.7392C113.403 37.8911 113.341 38.0519 113.296 38.2171L113.729 38.2176C113.747 38.2171 113.768 38.2176 113.787 38.2176C114.008 38.2176 114.228 38.1984 114.444 38.1622C114.607 38.1337 114.766 38.0813 114.913 38.0058C115.014 37.9519 115.099 37.8725 115.161 37.7764C115.215 37.6946 115.244 37.5985 115.244 37.501L115.254 37.5014L115.254 37.501ZM120.922 36.5824C120.925 36.6143 120.927 36.6466 120.927 36.6785C120.927 36.7108 120.925 36.7432 120.922 36.775C120.912 36.8589 120.893 36.9422 120.866 37.0231C120.852 37.1034 120.824 37.1814 120.783 37.2524C120.783 37.3078 120.71 37.3446 120.673 37.3446C120.615 37.3402 120.558 37.3211 120.508 37.2892L120.279 37.1789L119.966 37.0681C119.832 37.0382 119.694 37.0231 119.557 37.0231C119.553 37.0231 119.547 37.0231 119.543 37.0231C119.432 37.0235 119.32 37.0392 119.213 37.0691C119.124 37.0966 119.043 37.1441 118.974 37.2064C118.91 37.2578 118.859 37.324 118.827 37.3995C118.791 37.4725 118.771 37.5539 118.771 37.6357C118.771 37.6367 118.771 37.6377 118.771 37.6387C118.771 37.6397 118.771 37.6407 118.771 37.6411C118.771 37.749 118.823 37.8509 118.91 37.9146C119.014 37.9985 119.128 38.069 119.25 38.1259C119.378 38.1994 119.525 38.2636 119.682 38.3372C119.838 38.4077 119.987 38.4974 120.123 38.6033C120.26 38.7126 120.375 38.8469 120.462 38.9984C120.547 39.1626 120.592 39.3449 120.592 39.5302C120.592 39.5425 120.591 39.5557 120.591 39.5679C120.591 39.5812 120.592 39.5949 120.592 39.6086C120.592 39.8547 120.538 40.0983 120.435 40.3218C120.335 40.5537 120.18 40.759 119.985 40.9183C119.776 41.0982 119.532 41.233 119.268 41.3139C118.962 41.4104 118.641 41.4609 118.32 41.4609C118.315 41.4609 118.309 41.4609 118.302 41.4609C118.222 41.4653 118.14 41.4683 118.059 41.4683C117.978 41.4683 117.896 41.4653 117.816 41.4604C117.673 41.4389 117.531 41.408 117.393 41.3693C117.285 41.3394 117.18 41.2992 117.08 41.2497C117.013 41.2119 116.948 41.1688 116.888 41.1208C116.861 41.0943 116.839 41.0629 116.823 41.0291C116.821 41.0095 116.82 40.9894 116.82 40.9693C116.82 40.9497 116.821 40.9296 116.823 40.9095C116.821 40.8884 116.82 40.8669 116.82 40.8453C116.82 40.8237 116.821 40.8022 116.823 40.7811V40.6159C116.835 40.5537 116.851 40.4924 116.869 40.4321C116.878 40.3743 116.897 40.3184 116.924 40.2669C116.941 40.2248 116.963 40.1846 116.988 40.1473C117.001 40.1434 117.016 40.1409 117.03 40.1409C117.044 40.1409 117.058 40.1434 117.071 40.1478C117.132 40.1493 117.19 40.1718 117.236 40.212C117.311 40.2654 117.391 40.312 117.475 40.3493C117.723 40.4904 118.004 40.5644 118.29 40.5644C118.324 40.5644 118.36 40.5635 118.394 40.561C118.411 40.561 118.429 40.562 118.446 40.562C118.556 40.562 118.666 40.5458 118.771 40.5144C118.872 40.4845 118.966 40.4345 119.046 40.3679C119.113 40.31 119.166 40.2375 119.203 40.1566C119.233 40.0772 119.248 39.9929 119.248 39.9081C119.249 39.9032 119.249 39.8983 119.249 39.8929C119.249 39.7831 119.202 39.6782 119.12 39.6052C119.02 39.5175 118.909 39.443 118.79 39.3846C118.661 39.3111 118.514 39.2464 118.357 39.1734C118.205 39.1047 118.062 39.0146 117.934 38.9072C117.796 38.8053 117.683 38.6734 117.604 38.521C117.519 38.3646 117.474 38.1891 117.474 38.0107C117.474 37.9911 117.474 37.971 117.475 37.9514C117.475 37.9441 117.475 37.9352 117.475 37.9279C117.475 37.6931 117.522 37.4603 117.613 37.2441C117.71 37.0231 117.858 36.8275 118.045 36.6746C118.24 36.502 118.468 36.3702 118.716 36.2888C118.993 36.1971 119.285 36.1501 119.578 36.1501C119.596 36.1501 119.616 36.1506 119.634 36.1511C119.705 36.1442 119.778 36.1403 119.85 36.1403C119.922 36.1403 119.994 36.1442 120.065 36.1511C120.196 36.1633 120.326 36.1883 120.452 36.2246C120.552 36.2496 120.651 36.2839 120.745 36.3256C120.811 36.3579 120.873 36.3981 120.929 36.4452C120.938 36.4751 120.943 36.5059 120.943 36.5368C120.943 36.5682 120.938 36.5991 120.929 36.6285L120.92 36.5829L120.922 36.5824Z" fill="#6678E6"/>
<path d="M122.648 9.73843C116.959 9.73843 113.409 13.2102 113.409 20.3905C113.409 27.5703 116.96 31.0495 122.648 31.0495H133.622V26.889H123.035C119.319 26.889 117.713 24.9955 117.713 20.3905C117.713 15.7855 119.327 13.8558 123.035 13.8558H133.607V9.73843H122.647H122.648Z" fill="#6678E6"/>
<path d="M104.005 1.71213V6.67595H108.308V1.71213H104.005Z" fill="#6678E6"/>
<path d="M104.005 9.73843V31.049H108.308V9.73843H104.005Z" fill="#6678E6"/>
<path d="M78.4624 9.73844C76.3106 9.73844 75.4714 10.5492 75.4714 13.0524V31.049H79.775V14.4582C79.775 14.0562 79.9328 13.8553 80.2985 13.8553H87.2778C91.7608 13.8553 93.6974 15.713 93.6974 19.0627V31.0485H98.001V19.0627C98.001 13.1666 94.4934 9.73795 87.2416 9.73795H78.4619L78.4624 9.73844Z" fill="#6678E6"/>
<path d="M65.0629 1.71213V6.67595H69.3665V1.71213H65.0629Z" fill="#6678E6"/>
<path d="M65.0629 9.73843V31.049H69.3665V9.73843H65.0629Z" fill="#6678E6"/>
<path d="M54.6554 0.499969V31.0495H58.959V0.499969H54.6554Z" fill="#6678E6"/>
<path d="M38.6743 3.80658C30.7843 3.80658 26.3655 8.28956 26.3655 17.4354C26.3655 26.5807 30.7269 31.0637 38.6743 31.0637H49.2044V26.3224H38.6743C33.3733 26.3224 31.1284 23.6614 31.1284 17.4496C31.1284 11.2378 33.4238 8.56943 38.6743 8.56943H49.2044V3.80658H38.6743Z" fill="#6678E6"/>
<path d="M7.80181 9.73843C2.47968 9.73843 0.377892 12.7294 0.377892 16.7609V24.027C0.377892 28.0585 2.47968 31.0495 7.80181 31.0495H20.8351V26.889H7.80181C5.46376 26.889 4.53099 25.6411 4.53099 23.9412V22.4134H14.6596C19.9102 22.4134 21.8968 20.1901 21.8968 16.2806C21.8968 12.1632 19.745 9.73892 14.7243 9.73892H7.8023L7.80181 9.73843ZM4.53099 16.804C4.53099 15.1468 5.46376 13.8562 7.80181 13.8562L14.6596 13.8558C16.7614 13.8558 17.6863 14.9032 17.6863 16.5168C17.6863 18.1309 16.8756 19.0632 14.5444 19.0632H4.50256L4.53099 16.8036V16.804Z" fill="#6678E6"/>
</g>
<defs>
<clipPath id="clip0_39695_1355">
<rect width="133.245" height="43" fill="white" transform="translate(0.377625 0.5)"/>
</clipPath>
</defs>
</svg>
